<svg width="58" height="51" viewBox="0 0 58 51" fill="none" xmlns="http://www.w3.org/2000/svg">
<path d="M29 24.2306L29 5.76905" stroke="black"/>
<path d="M19.7695 15H38.2311" stroke="black"/>
<path d="M29 0.5C37.0081 0.5 43.5 6.99189 43.5 15C43.5 23.0081 37.0081 29.5 29 29.5C20.9919 29.5 14.5 23.0081 14.5 15C14.5 6.99189 20.9919 0.5 29 0.5Z" stroke="black"/>
<path d="M5.136 48V46.608L5.1 46.38V44.052C5.1 43.516 4.948 43.104 4.644 42.816C4.348 42.528 3.904 42.384 3.312 42.384C2.904 42.384 2.516 42.452 2.148 42.588C1.78 42.724 1.468 42.904 1.212 43.128L0.828 42.492C1.148 42.22 1.532 42.012 1.98 41.868C2.428 41.716 2.9 41.64 3.396 41.64C4.212 41.64 4.84 41.844 5.28 42.252C5.728 42.652 5.952 43.264 5.952 44.088V48H5.136ZM2.964 48.06C2.492 48.06 2.08 47.984 1.728 47.832C1.384 47.672 1.12 47.456 0.936 47.184C0.752 46.904 0.66 46.584 0.66 46.224C0.66 45.896 0.736 45.6 0.888 45.336C1.048 45.064 1.304 44.848 1.656 44.688C2.016 44.52 2.496 44.436 3.096 44.436H5.268V45.072H3.12C2.512 45.072 2.088 45.18 1.848 45.396C1.616 45.612 1.5 45.88 1.5 46.2C1.5 46.56 1.64 46.848 1.92 47.064C2.2 47.28 2.592 47.388 3.096 47.388C3.576 47.388 3.988 47.28 4.332 47.064C4.684 46.84 4.94 46.52 5.1 46.104L5.292 46.692C5.132 47.108 4.852 47.44 4.452 47.688C4.06 47.936 3.564 48.06 2.964 48.06ZM10.7741 48.06C10.1741 48.06 9.63413 47.924 9.15413 47.652C8.68213 47.38 8.31013 47.004 8.03813 46.524C7.76613 46.036 7.63013 45.476 7.63013 44.844C7.63013 44.204 7.76613 43.644 8.03813 43.164C8.31013 42.684 8.68213 42.312 9.15413 42.048C9.63413 41.776 10.1741 41.64 10.7741 41.64C11.3261 41.64 11.8181 41.764 12.2501 42.012C12.6901 42.26 13.0381 42.624 13.2941 43.104C13.5581 43.576 13.6901 44.156 13.6901 44.844C13.6901 45.524 13.5621 46.104 13.3061 46.584C13.0501 47.064 12.7021 47.432 12.2621 47.688C11.8301 47.936 11.3341 48.06 10.7741 48.06ZM10.8341 47.304C11.2821 47.304 11.6821 47.204 12.0341 47.004C12.3941 46.796 12.6741 46.508 12.8741 46.14C13.0821 45.764 13.1861 45.332 13.1861 44.844C13.1861 44.348 13.0821 43.916 12.8741 43.548C12.6741 43.18 12.3941 42.896 12.0341 42.696C11.6821 42.488 11.2821 42.384 10.8341 42.384C10.3941 42.384 9.99813 42.488 9.64613 42.696C9.29413 42.896 9.01413 43.18 8.80613 43.548C8.59813 43.916 8.49413 44.348 8.49413 44.844C8.49413 45.332 8.59813 45.764 8.80613 46.14C9.01413 46.508 9.29413 46.796 9.64613 47.004C9.99813 47.204 10.3941 47.304 10.8341 47.304ZM13.2101 48V46.104L13.2941 44.832L13.1741 43.56V39.096H14.0261V48H13.2101ZM18.9069 48.06C18.3069 48.06 17.7669 47.924 17.2869 47.652C16.8149 47.38 16.4429 47.004 16.1709 46.524C15.8989 46.036 15.7629 45.476 15.7629 44.844C15.7629 44.204 15.8989 43.644 16.1709 43.164C16.4429 42.684 16.8149 42.312 17.2869 42.048C17.7669 41.776 18.3069 41.64 18.9069 41.64C19.4589 41.64 19.9509 41.764 20.3829 42.012C20.8229 42.26 21.1709 42.624 21.4269 43.104C21.6909 43.576 21.8229 44.156 21.8229 44.844C21.8229 45.524 21.6949 46.104 21.4389 46.584C21.1829 47.064 20.8349 47.432 20.3949 47.688C19.9629 47.936 19.4669 48.06 18.9069 48.06ZM18.9669 47.304C19.4149 47.304 19.8149 47.204 20.1669 47.004C20.5269 46.796 20.8069 46.508 21.0069 46.14C21.2149 45.764 21.3189 45.332 21.3189 44.844C21.3189 44.348 21.2149 43.916 21.0069 43.548C20.8069 43.18 20.5269 42.896 20.1669 42.696C19.8149 42.488 19.4149 42.384 18.9669 42.384C18.5269 42.384 18.1309 42.488 17.7789 42.696C17.4269 42.896 17.1469 43.18 16.9389 43.548C16.7309 43.916 16.6269 44.348 16.6269 44.844C16.6269 45.332 16.7309 45.764 16.9389 46.14C17.1469 46.508 17.4269 46.796 17.7789 47.004C18.1309 47.204 18.5269 47.304 18.9669 47.304ZM21.3429 48V46.104L21.4269 44.832L21.3069 43.56V39.096H22.1589V48H21.3429ZM30.9244 48.06C30.3804 48.06 29.8884 47.936 29.4484 47.688C29.0084 47.432 28.6564 47.068 28.3924 46.596C28.1364 46.116 28.0084 45.532 28.0084 44.844C28.0084 44.156 28.1364 43.576 28.3924 43.104C28.6484 42.624 28.9964 42.26 29.4364 42.012C29.8764 41.764 30.3724 41.64 30.9244 41.64C31.5244 41.64 32.0604 41.776 32.5324 42.048C33.0124 42.312 33.3884 42.688 33.6604 43.176C33.9324 43.656 34.0684 44.212 34.0684 44.844C34.0684 45.484 33.9324 46.044 33.6604 46.524C33.3884 47.004 33.0124 47.38 32.5324 47.652C32.0604 47.924 31.5244 48.06 30.9244 48.06ZM27.6724 50.328V41.7H28.4884V43.596L28.4044 44.856L28.5244 46.128V50.328H27.6724ZM30.8644 47.304C31.3124 47.304 31.7124 47.204 32.0644 47.004C32.4164 46.796 32.6964 46.508 32.9044 46.14C33.1124 45.764 33.2164 45.332 33.2164 44.844C33.2164 44.356 33.1124 43.928 32.9044 43.56C32.6964 43.192 32.4164 42.904 32.0644 42.696C31.7124 42.488 31.3124 42.384 30.8644 42.384C30.4164 42.384 30.0124 42.488 29.6524 42.696C29.3004 42.904 29.0204 43.192 28.8124 43.56C28.6124 43.928 28.5124 44.356 28.5124 44.844C28.5124 45.332 28.6124 45.764 28.8124 46.14C29.0204 46.508 29.3004 46.796 29.6524 47.004C30.0124 47.204 30.4164 47.304 30.8644 47.304ZM39.718 48V46.608L39.682 46.38V44.052C39.682 43.516 39.53 43.104 39.226 42.816C38.93 42.528 38.486 42.384 37.894 42.384C37.486 42.384 37.098 42.452 36.73 42.588C36.362 42.724 36.05 42.904 35.794 43.128L35.41 42.492C35.73 42.22 36.114 42.012 36.562 41.868C37.01 41.716 37.482 41.64 37.978 41.64C38.794 41.64 39.422 41.844 39.862 42.252C40.31 42.652 40.534 43.264 40.534 44.088V48H39.718ZM37.546 48.06C37.074 48.06 36.662 47.984 36.31 47.832C35.966 47.672 35.702 47.456 35.518 47.184C35.334 46.904 35.242 46.584 35.242 46.224C35.242 45.896 35.318 45.6 35.47 45.336C35.63 45.064 35.886 44.848 36.238 44.688C36.598 44.52 37.078 44.436 37.678 44.436H39.85V45.072H37.702C37.094 45.072 36.67 45.18 36.43 45.396C36.198 45.612 36.082 45.88 36.082 46.2C36.082 46.56 36.222 46.848 36.502 47.064C36.782 47.28 37.174 47.388 37.678 47.388C38.158 47.388 38.57 47.28 38.914 47.064C39.266 46.84 39.522 46.52 39.682 46.104L39.874 46.692C39.714 47.108 39.434 47.44 39.034 47.688C38.642 47.936 38.146 48.06 37.546 48.06ZM45.5362 50.388C44.9602 50.388 44.4082 50.304 43.8802 50.136C43.3522 49.968 42.9242 49.728 42.5962 49.416L43.0282 48.768C43.3242 49.032 43.6882 49.24 44.1202 49.392C44.5602 49.552 45.0242 49.632 45.5122 49.632C46.3122 49.632 46.9002 49.444 47.2762 49.068C47.6522 48.7 47.8402 48.124 47.8402 47.34V45.768L47.9602 44.688L47.8762 43.608V41.7H48.6922V47.232C48.6922 48.32 48.4242 49.116 47.8882 49.62C47.3602 50.132 46.5762 50.388 45.5362 50.388ZM45.3802 47.76C44.7802 47.76 44.2402 47.632 43.7602 47.376C43.2802 47.112 42.9002 46.748 42.6202 46.284C42.3482 45.82 42.2122 45.288 42.2122 44.688C42.2122 44.088 42.3482 43.56 42.6202 43.104C42.9002 42.64 43.2802 42.28 43.7602 42.024C44.2402 41.768 44.7802 41.64 45.3802 41.64C45.9402 41.64 46.4442 41.756 46.8922 41.988C47.3402 42.22 47.6962 42.564 47.9602 43.02C48.2242 43.476 48.3562 44.032 48.3562 44.688C48.3562 45.344 48.2242 45.9 47.9602 46.356C47.6962 46.812 47.3402 47.16 46.8922 47.4C46.4442 47.64 45.9402 47.76 45.3802 47.76ZM45.4642 47.004C45.9282 47.004 46.3402 46.908 46.7002 46.716C47.0602 46.516 47.3442 46.244 47.5522 45.9C47.7602 45.548 47.8642 45.144 47.8642 44.688C47.8642 44.232 47.7602 43.832 47.5522 43.488C47.3442 43.144 47.0602 42.876 46.7002 42.684C46.3402 42.484 45.9282 42.384 45.4642 42.384C45.0082 42.384 44.5962 42.484 44.2282 42.684C43.8682 42.876 43.5842 43.144 43.3762 43.488C43.1762 43.832 43.0762 44.232 43.0762 44.688C43.0762 45.144 43.1762 45.548 43.3762 45.9C43.5842 46.244 43.8682 46.516 44.2282 46.716C44.5962 46.908 45.0082 47.004 45.4642 47.004ZM53.739 48.06C53.083 48.06 52.507 47.924 52.011 47.652C51.515 47.372 51.127 46.992 50.847 46.512C50.567 46.024 50.427 45.468 50.427 44.844C50.427 44.22 50.559 43.668 50.823 43.188C51.095 42.708 51.463 42.332 51.927 42.06C52.399 41.78 52.927 41.64 53.511 41.64C54.103 41.64 54.627 41.776 55.083 42.048C55.547 42.312 55.911 42.688 56.175 43.176C56.439 43.656 56.571 44.212 56.571 44.844C56.571 44.884 56.567 44.928 56.559 44.976C56.559 45.016 56.559 45.06 56.559 45.108H51.075V44.472H56.103L55.767 44.724C55.767 44.268 55.667 43.864 55.467 43.512C55.275 43.152 55.011 42.872 54.675 42.672C54.339 42.472 53.951 42.372 53.511 42.372C53.079 42.372 52.691 42.472 52.347 42.672C52.003 42.872 51.735 43.152 51.543 43.512C51.351 43.872 51.255 44.284 51.255 44.748V44.88C51.255 45.36 51.359 45.784 51.567 46.152C51.783 46.512 52.079 46.796 52.455 47.004C52.839 47.204 53.275 47.304 53.763 47.304C54.147 47.304 54.503 47.236 54.831 47.1C55.167 46.964 55.455 46.756 55.695 46.476L56.175 47.028C55.895 47.364 55.543 47.62 55.119 47.796C54.703 47.972 54.243 48.06 53.739 48.06Z" fill="black"/>
</svg>
