<svg width="78" height="35" viewBox="0 0 78 35" fill="none" xmlns="http://www.w3.org/2000/svg">
<path d="M23.8105 20.8953L20.4152 17.5L23.8105 14.1047C23.9318 13.9834 24 13.8187 24 13.6471C24 13.4755 23.9318 13.3109 23.8105 13.1895C23.6891 13.0682 23.5245 13 23.3529 13C23.1813 13 23.0167 13.0682 22.8953 13.1895L19.5 16.5848L16.1047 13.1895C15.9833 13.0682 15.8187 13 15.6471 13C15.4755 13 15.3109 13.0682 15.1895 13.1895C15.0682 13.3109 15 13.4755 15 13.6471C15 13.8187 15.0682 13.9834 15.1895 14.1047L18.5848 17.5L15.1895 20.8953C15.0682 21.0167 15 21.1813 15 21.3529C15 21.5245 15.0682 21.6891 15.1895 21.8105C15.3109 21.9318 15.4755 22 15.6471 22C15.8187 22 15.9833 21.9318 16.1047 21.8105L19.5 18.4152L22.8953 21.8105C23.0166 21.9318 23.1813 22 23.3529 22C23.5245 22 23.6891 21.9318 23.8105 21.8105C23.9318 21.6891 24 21.5245 24 21.3529C24 21.1813 23.9318 21.0167 23.8105 20.8953Z" fill="#E4E4E4"/>
<path d="M34.2348 22.12C33.5948 22.12 32.9988 22.016 32.4468 21.808C31.9028 21.592 31.4268 21.292 31.0188 20.908C30.6188 20.516 30.3068 20.056 30.0828 19.528C29.8588 19 29.7468 18.424 29.7468 17.8C29.7468 17.176 29.8588 16.6 30.0828 16.072C30.3068 15.544 30.6228 15.088 31.0308 14.704C31.4388 14.312 31.9148 14.012 32.4588 13.804C33.0028 13.588 33.5988 13.48 34.2468 13.48C34.9348 13.48 35.5628 13.6 36.1308 13.84C36.6988 14.072 37.1788 14.42 37.5708 14.884L36.5628 15.832C36.2588 15.504 35.9188 15.26 35.5428 15.1C35.1668 14.932 34.7588 14.848 34.3188 14.848C33.8788 14.848 33.4748 14.92 33.1068 15.064C32.7468 15.208 32.4308 15.412 32.1588 15.676C31.8948 15.94 31.6868 16.252 31.5348 16.612C31.3908 16.972 31.3188 17.368 31.3188 17.8C31.3188 18.232 31.3908 18.628 31.5348 18.988C31.6868 19.348 31.8948 19.66 32.1588 19.924C32.4308 20.188 32.7468 20.392 33.1068 20.536C33.4748 20.68 33.8788 20.752 34.3188 20.752C34.7588 20.752 35.1668 20.672 35.5428 20.512C35.9188 20.344 36.2588 20.092 36.5628 19.756L37.5708 20.716C37.1788 21.172 36.6988 21.52 36.1308 21.76C35.5628 22 34.9308 22.12 34.2348 22.12ZM38.9215 22V13.096H40.4215V22H38.9215ZM45.2703 22.084C44.6143 22.084 44.0303 21.944 43.5183 21.664C43.0063 21.376 42.6023 20.984 42.3063 20.488C42.0103 19.992 41.8623 19.428 41.8623 18.796C41.8623 18.156 42.0103 17.592 42.3063 17.104C42.6023 16.608 43.0063 16.22 43.5183 15.94C44.0303 15.66 44.6143 15.52 45.2703 15.52C45.9343 15.52 46.5223 15.66 47.0343 15.94C47.5543 16.22 47.9583 16.604 48.2463 17.092C48.5423 17.58 48.6903 18.148 48.6903 18.796C48.6903 19.428 48.5423 19.992 48.2463 20.488C47.9583 20.984 47.5543 21.376 47.0343 21.664C46.5223 21.944 45.9343 22.084 45.2703 22.084ZM45.2703 20.8C45.6383 20.8 45.9663 20.72 46.2543 20.56C46.5423 20.4 46.7663 20.168 46.9263 19.864C47.0943 19.56 47.1783 19.204 47.1783 18.796C47.1783 18.38 47.0943 18.024 46.9263 17.728C46.7663 17.424 46.5423 17.192 46.2543 17.032C45.9663 16.872 45.6423 16.792 45.2823 16.792C44.9143 16.792 44.5863 16.872 44.2983 17.032C44.0183 17.192 43.7943 17.424 43.6263 17.728C43.4583 18.024 43.3743 18.38 43.3743 18.796C43.3743 19.204 43.4583 19.56 43.6263 19.864C43.7943 20.168 44.0183 20.4 44.2983 20.56C44.5863 20.72 44.9103 20.8 45.2703 20.8ZM52.1046 22.084C51.5686 22.084 51.0526 22.016 50.5566 21.88C50.0686 21.736 49.6806 21.564 49.3926 21.364L49.9686 20.224C50.2566 20.408 50.6006 20.56 51.0006 20.68C51.4006 20.8 51.8006 20.86 52.2006 20.86C52.6726 20.86 53.0126 20.796 53.2206 20.668C53.4366 20.54 53.5446 20.368 53.5446 20.152C53.5446 19.976 53.4726 19.844 53.3286 19.756C53.1846 19.66 52.9966 19.588 52.7646 19.54C52.5326 19.492 52.2726 19.448 51.9846 19.408C51.7046 19.368 51.4206 19.316 51.1326 19.252C50.8526 19.18 50.5966 19.08 50.3646 18.952C50.1326 18.816 49.9446 18.636 49.8006 18.412C49.6566 18.188 49.5846 17.892 49.5846 17.524C49.5846 17.116 49.7006 16.764 49.9326 16.468C50.1646 16.164 50.4886 15.932 50.9046 15.772C51.3286 15.604 51.8286 15.52 52.4046 15.52C52.8366 15.52 53.2726 15.568 53.7126 15.664C54.1526 15.76 54.5166 15.896 54.8046 16.072L54.2286 17.212C53.9246 17.028 53.6166 16.904 53.3046 16.84C53.0006 16.768 52.6966 16.732 52.3926 16.732C51.9366 16.732 51.5966 16.8 51.3726 16.936C51.1566 17.072 51.0486 17.244 51.0486 17.452C51.0486 17.644 51.1206 17.788 51.2646 17.884C51.4086 17.98 51.5966 18.056 51.8286 18.112C52.0606 18.168 52.3166 18.216 52.5966 18.256C52.8846 18.288 53.1686 18.34 53.4486 18.412C53.7286 18.484 53.9846 18.584 54.2166 18.712C54.4566 18.832 54.6486 19.004 54.7926 19.228C54.9366 19.452 55.0086 19.744 55.0086 20.104C55.0086 20.504 54.8886 20.852 54.6486 21.148C54.4166 21.444 54.0846 21.676 53.6526 21.844C53.2206 22.004 52.7046 22.084 52.1046 22.084ZM59.3124 22.084C58.6004 22.084 57.9764 21.944 57.4404 21.664C56.9124 21.376 56.5004 20.984 56.2044 20.488C55.9164 19.992 55.7724 19.428 55.7724 18.796C55.7724 18.156 55.9124 17.592 56.1924 17.104C56.4804 16.608 56.8724 16.22 57.3684 15.94C57.8724 15.66 58.4444 15.52 59.0844 15.52C59.7084 15.52 60.2644 15.656 60.7524 15.928C61.2404 16.2 61.6244 16.584 61.9044 17.08C62.1844 17.576 62.3244 18.16 62.3244 18.832C62.3244 18.896 62.3204 18.968 62.3124 19.048C62.3124 19.128 62.3084 19.204 62.3004 19.276H56.9604V18.28H61.5084L60.9204 18.592C60.9284 18.224 60.8524 17.9 60.6924 17.62C60.5324 17.34 60.3124 17.12 60.0324 16.96C59.7604 16.8 59.4444 16.72 59.0844 16.72C58.7164 16.72 58.3924 16.8 58.1124 16.96C57.8404 17.12 57.6244 17.344 57.4644 17.632C57.3124 17.912 57.2364 18.244 57.2364 18.628V18.868C57.2364 19.252 57.3244 19.592 57.5004 19.888C57.6764 20.184 57.9244 20.412 58.2444 20.572C58.5644 20.732 58.9324 20.812 59.3484 20.812C59.7084 20.812 60.0324 20.756 60.3204 20.644C60.6084 20.532 60.8644 20.356 61.0884 20.116L61.8924 21.04C61.6044 21.376 61.2404 21.636 60.8004 21.82C60.3684 21.996 59.8724 22.084 59.3124 22.084Z" fill="white"/>
</svg>
