<svg width="76" height="76" viewBox="0 0 76 76" fill="none" xmlns="http://www.w3.org/2000/svg">
<path d="M31.4731 28.527L44.5274 15.4728" stroke="black"/>
<path d="M31.4731 15.4731L44.5274 28.5274" stroke="black"/>
<path d="M48.253 11.747C53.9157 17.4096 53.9156 26.5905 48.253 32.2531C42.5905 37.9156 33.4095 37.9157 27.747 32.2531C22.0844 26.5905 22.0844 17.4096 27.747 11.747C33.4095 6.08437 42.5904 6.08436 48.253 11.747Z" stroke="black"/>
<path d="M21.2585 55.06C20.6585 55.06 20.1185 54.924 19.6385 54.652C19.1665 54.38 18.7945 54.004 18.5225 53.524C18.2505 53.036 18.1145 52.476 18.1145 51.844C18.1145 51.204 18.2505 50.644 18.5225 50.164C18.7945 49.684 19.1665 49.312 19.6385 49.048C20.1185 48.776 20.6585 48.64 21.2585 48.64C21.8105 48.64 22.3025 48.764 22.7345 49.012C23.1745 49.26 23.5225 49.624 23.7785 50.104C24.0425 50.576 24.1745 51.156 24.1745 51.844C24.1745 52.524 24.0465 53.104 23.7905 53.584C23.5345 54.064 23.1865 54.432 22.7465 54.688C22.3145 54.936 21.8185 55.06 21.2585 55.06ZM21.3185 54.304C21.7665 54.304 22.1665 54.204 22.5185 54.004C22.8785 53.796 23.1585 53.508 23.3585 53.14C23.5665 52.764 23.6705 52.332 23.6705 51.844C23.6705 51.348 23.5665 50.916 23.3585 50.548C23.1585 50.18 22.8785 49.896 22.5185 49.696C22.1665 49.488 21.7665 49.384 21.3185 49.384C20.8785 49.384 20.4825 49.488 20.1305 49.696C19.7785 49.896 19.4985 50.18 19.2905 50.548C19.0825 50.916 18.9785 51.348 18.9785 51.844C18.9785 52.332 19.0825 52.764 19.2905 53.14C19.4985 53.508 19.7785 53.796 20.1305 54.004C20.4825 54.204 20.8785 54.304 21.3185 54.304ZM23.6945 55V53.104L23.7785 51.832L23.6585 50.56V46.096H24.5105V55H23.6945ZM29.5593 55.06C28.9033 55.06 28.3273 54.924 27.8313 54.652C27.3353 54.372 26.9473 53.992 26.6673 53.512C26.3873 53.024 26.2473 52.468 26.2473 51.844C26.2473 51.22 26.3793 50.668 26.6433 50.188C26.9153 49.708 27.2833 49.332 27.7473 49.06C28.2193 48.78 28.7473 48.64 29.3313 48.64C29.9233 48.64 30.4473 48.776 30.9033 49.048C31.3673 49.312 31.7313 49.688 31.9953 50.176C32.2593 50.656 32.3913 51.212 32.3913 51.844C32.3913 51.884 32.3873 51.928 32.3793 51.976C32.3793 52.016 32.3793 52.06 32.3793 52.108H26.8953V51.472H31.9233L31.5873 51.724C31.5873 51.268 31.4873 50.864 31.2873 50.512C31.0953 50.152 30.8313 49.872 30.4953 49.672C30.1593 49.472 29.7713 49.372 29.3313 49.372C28.8993 49.372 28.5113 49.472 28.1673 49.672C27.8233 49.872 27.5553 50.152 27.3633 50.512C27.1713 50.872 27.0753 51.284 27.0753 51.748V51.88C27.0753 52.36 27.1793 52.784 27.3873 53.152C27.6033 53.512 27.8993 53.796 28.2753 54.004C28.6593 54.204 29.0953 54.304 29.5833 54.304C29.9673 54.304 30.3233 54.236 30.6513 54.1C30.9873 53.964 31.2753 53.756 31.5153 53.476L31.9953 54.028C31.7153 54.364 31.3633 54.62 30.9393 54.796C30.5233 54.972 30.0633 55.06 29.5593 55.06ZM34.1255 55V46.096H34.9775V55H34.1255ZM40.0242 55.06C39.3682 55.06 38.7922 54.924 38.2962 54.652C37.8002 54.372 37.4122 53.992 37.1322 53.512C36.8522 53.024 36.7122 52.468 36.7122 51.844C36.7122 51.22 36.8442 50.668 37.1082 50.188C37.3802 49.708 37.7482 49.332 38.2122 49.06C38.6842 48.78 39.2122 48.64 39.7962 48.64C40.3882 48.64 40.9122 48.776 41.3682 49.048C41.8322 49.312 42.1962 49.688 42.4602 50.176C42.7242 50.656 42.8562 51.212 42.8562 51.844C42.8562 51.884 42.8522 51.928 42.8442 51.976C42.8442 52.016 42.8442 52.06 42.8442 52.108H37.3602V51.472H42.3882L42.0522 51.724C42.0522 51.268 41.9522 50.864 41.7522 50.512C41.5602 50.152 41.2962 49.872 40.9602 49.672C40.6242 49.472 40.2362 49.372 39.7962 49.372C39.3642 49.372 38.9762 49.472 38.6322 49.672C38.2882 49.872 38.0202 50.152 37.8282 50.512C37.6362 50.872 37.5402 51.284 37.5402 51.748V51.88C37.5402 52.36 37.6442 52.784 37.8522 53.152C38.0682 53.512 38.3642 53.796 38.7402 54.004C39.1242 54.204 39.5602 54.304 40.0482 54.304C40.4322 54.304 40.7882 54.236 41.1162 54.1C41.4522 53.964 41.7402 53.756 41.9802 53.476L42.4602 54.028C42.1802 54.364 41.8282 54.62 41.4042 54.796C40.9882 54.972 40.5282 55.06 40.0242 55.06ZM46.5823 55.06C45.9903 55.06 45.5343 54.9 45.2143 54.58C44.8943 54.26 44.7343 53.808 44.7343 53.224V47.308H45.5863V53.176C45.5863 53.544 45.6783 53.828 45.8623 54.028C46.0543 54.228 46.3263 54.328 46.6783 54.328C47.0543 54.328 47.3663 54.22 47.6143 54.004L47.9143 54.616C47.7463 54.768 47.5423 54.88 47.3023 54.952C47.0703 55.024 46.8303 55.06 46.5823 55.06ZM43.6063 49.408V48.7H47.5063V49.408H43.6063ZM51.9187 55.06C51.2627 55.06 50.6867 54.924 50.1907 54.652C49.6947 54.372 49.3067 53.992 49.0267 53.512C48.7467 53.024 48.6067 52.468 48.6067 51.844C48.6067 51.22 48.7387 50.668 49.0027 50.188C49.2747 49.708 49.6427 49.332 50.1067 49.06C50.5787 48.78 51.1067 48.64 51.6907 48.64C52.2827 48.64 52.8067 48.776 53.2627 49.048C53.7267 49.312 54.0907 49.688 54.3547 50.176C54.6187 50.656 54.7507 51.212 54.7507 51.844C54.7507 51.884 54.7467 51.928 54.7387 51.976C54.7387 52.016 54.7387 52.06 54.7387 52.108H49.2547V51.472H54.2827L53.9467 51.724C53.9467 51.268 53.8467 50.864 53.6467 50.512C53.4547 50.152 53.1907 49.872 52.8547 49.672C52.5187 49.472 52.1307 49.372 51.6907 49.372C51.2587 49.372 50.8707 49.472 50.5267 49.672C50.1827 49.872 49.9147 50.152 49.7227 50.512C49.5307 50.872 49.4347 51.284 49.4347 51.748V51.88C49.4347 52.36 49.5387 52.784 49.7467 53.152C49.9627 53.512 50.2587 53.796 50.6347 54.004C51.0187 54.204 51.4547 54.304 51.9427 54.304C52.3267 54.304 52.6827 54.236 53.0107 54.1C53.3467 53.964 53.6347 53.756 53.8747 53.476L54.3547 54.028C54.0747 54.364 53.7227 54.62 53.2987 54.796C52.8827 54.972 52.4227 55.06 51.9187 55.06ZM27.1236 70.06C26.5796 70.06 26.0876 69.936 25.6476 69.688C25.2076 69.432 24.8556 69.068 24.5916 68.596C24.3356 68.116 24.2076 67.532 24.2076 66.844C24.2076 66.156 24.3356 65.576 24.5916 65.104C24.8476 64.624 25.1956 64.26 25.6356 64.012C26.0756 63.764 26.5716 63.64 27.1236 63.64C27.7236 63.64 28.2596 63.776 28.7316 64.048C29.2116 64.312 29.5876 64.688 29.8596 65.176C30.1316 65.656 30.2676 66.212 30.2676 66.844C30.2676 67.484 30.1316 68.044 29.8596 68.524C29.5876 69.004 29.2116 69.38 28.7316 69.652C28.2596 69.924 27.7236 70.06 27.1236 70.06ZM23.8716 72.328V63.7H24.6876V65.596L24.6036 66.856L24.7236 68.128V72.328H23.8716ZM27.0636 69.304C27.5116 69.304 27.9116 69.204 28.2636 69.004C28.6156 68.796 28.8956 68.508 29.1036 68.14C29.3116 67.764 29.4156 67.332 29.4156 66.844C29.4156 66.356 29.3116 65.928 29.1036 65.56C28.8956 65.192 28.6156 64.904 28.2636 64.696C27.9116 64.488 27.5116 64.384 27.0636 64.384C26.6156 64.384 26.2116 64.488 25.8516 64.696C25.4996 64.904 25.2196 65.192 25.0116 65.56C24.8116 65.928 24.7116 66.356 24.7116 66.844C24.7116 67.332 24.8116 67.764 25.0116 68.14C25.2196 68.508 25.4996 68.796 25.8516 69.004C26.2116 69.204 26.6156 69.304 27.0636 69.304ZM35.9172 70V68.608L35.8812 68.38V66.052C35.8812 65.516 35.7292 65.104 35.4252 64.816C35.1292 64.528 34.6852 64.384 34.0932 64.384C33.6852 64.384 33.2972 64.452 32.9292 64.588C32.5612 64.724 32.2492 64.904 31.9932 65.128L31.6092 64.492C31.9292 64.22 32.3132 64.012 32.7612 63.868C33.2092 63.716 33.6812 63.64 34.1772 63.64C34.9932 63.64 35.6212 63.844 36.0612 64.252C36.5092 64.652 36.7332 65.264 36.7332 66.088V70H35.9172ZM33.7452 70.06C33.2732 70.06 32.8612 69.984 32.5092 69.832C32.1652 69.672 31.9012 69.456 31.7172 69.184C31.5332 68.904 31.4412 68.584 31.4412 68.224C31.4412 67.896 31.5172 67.6 31.6692 67.336C31.8292 67.064 32.0852 66.848 32.4372 66.688C32.7972 66.52 33.2772 66.436 33.8772 66.436H36.0492V67.072H33.9012C33.2932 67.072 32.8692 67.18 32.6292 67.396C32.3972 67.612 32.2812 67.88 32.2812 68.2C32.2812 68.56 32.4212 68.848 32.7012 69.064C32.9812 69.28 33.3732 69.388 33.8772 69.388C34.3572 69.388 34.7692 69.28 35.1132 69.064C35.4652 68.84 35.7212 68.52 35.8812 68.104L36.0732 68.692C35.9132 69.108 35.6332 69.44 35.2332 69.688C34.8412 69.936 34.3452 70.06 33.7452 70.06ZM41.7354 72.388C41.1594 72.388 40.6074 72.304 40.0794 72.136C39.5514 71.968 39.1234 71.728 38.7954 71.416L39.2274 70.768C39.5234 71.032 39.8874 71.24 40.3194 71.392C40.7594 71.552 41.2234 71.632 41.7114 71.632C42.5114 71.632 43.0994 71.444 43.4754 71.068C43.8514 70.7 44.0394 70.124 44.0394 69.34V67.768L44.1594 66.688L44.0754 65.608V63.7H44.8914V69.232C44.8914 70.32 44.6234 71.116 44.0874 71.62C43.5594 72.132 42.7754 72.388 41.7354 72.388ZM41.5794 69.76C40.9794 69.76 40.4394 69.632 39.9594 69.376C39.4794 69.112 39.0994 68.748 38.8194 68.284C38.5474 67.82 38.4114 67.288 38.4114 66.688C38.4114 66.088 38.5474 65.56 38.8194 65.104C39.0994 64.64 39.4794 64.28 39.9594 64.024C40.4394 63.768 40.9794 63.64 41.5794 63.64C42.1394 63.64 42.6434 63.756 43.0914 63.988C43.5394 64.22 43.8954 64.564 44.1594 65.02C44.4234 65.476 44.5554 66.032 44.5554 66.688C44.5554 67.344 44.4234 67.9 44.1594 68.356C43.8954 68.812 43.5394 69.16 43.0914 69.4C42.6434 69.64 42.1394 69.76 41.5794 69.76ZM41.6634 69.004C42.1274 69.004 42.5394 68.908 42.8994 68.716C43.2594 68.516 43.5434 68.244 43.7514 67.9C43.9594 67.548 44.0634 67.144 44.0634 66.688C44.0634 66.232 43.9594 65.832 43.7514 65.488C43.5434 65.144 43.2594 64.876 42.8994 64.684C42.5394 64.484 42.1274 64.384 41.6634 64.384C41.2074 64.384 40.7954 64.484 40.4274 64.684C40.0674 64.876 39.7834 65.144 39.5754 65.488C39.3754 65.832 39.2754 66.232 39.2754 66.688C39.2754 67.144 39.3754 67.548 39.5754 67.9C39.7834 68.244 40.0674 68.516 40.4274 68.716C40.7954 68.908 41.2074 69.004 41.6634 69.004ZM49.9382 70.06C49.2822 70.06 48.7062 69.924 48.2102 69.652C47.7142 69.372 47.3262 68.992 47.0462 68.512C46.7662 68.024 46.6262 67.468 46.6262 66.844C46.6262 66.22 46.7582 65.668 47.0222 65.188C47.2942 64.708 47.6622 64.332 48.1262 64.06C48.5982 63.78 49.1262 63.64 49.7102 63.64C50.3022 63.64 50.8262 63.776 51.2822 64.048C51.7462 64.312 52.1102 64.688 52.3742 65.176C52.6382 65.656 52.7702 66.212 52.7702 66.844C52.7702 66.884 52.7662 66.928 52.7582 66.976C52.7582 67.016 52.7582 67.06 52.7582 67.108H47.2742V66.472H52.3022L51.9662 66.724C51.9662 66.268 51.8662 65.864 51.6662 65.512C51.4742 65.152 51.2102 64.872 50.8742 64.672C50.5382 64.472 50.1502 64.372 49.7102 64.372C49.2782 64.372 48.8902 64.472 48.5462 64.672C48.2022 64.872 47.9342 65.152 47.7422 65.512C47.5502 65.872 47.4542 66.284 47.4542 66.748V66.88C47.4542 67.36 47.5582 67.784 47.7662 68.152C47.9822 68.512 48.2782 68.796 48.6542 69.004C49.0382 69.204 49.4742 69.304 49.9622 69.304C50.3462 69.304 50.7022 69.236 51.0302 69.1C51.3662 68.964 51.6542 68.756 51.8942 68.476L52.3742 69.028C52.0942 69.364 51.7422 69.62 51.3182 69.796C50.9022 69.972 50.4422 70.06 49.9382 70.06Z" fill="black"/>
</svg>
