<svg width="45" height="51" viewBox="0 0 45 51" fill="none" xmlns="http://www.w3.org/2000/svg">
<path d="M22 0.5C30.0081 0.5 36.5 6.99189 36.5 15C36.5 23.0081 30.0081 29.5 22 29.5C13.9919 29.5 7.50001 23.0081 7.5 15C7.5 6.99189 13.9919 0.5 22 0.5Z" stroke="black"/>
<path d="M11.6464 14.6464C11.4512 14.8417 11.4512 15.1583 11.6464 15.3536L14.8284 18.5355C15.0237 18.7308 15.3403 18.7308 15.5355 18.5355C15.7308 18.3403 15.7308 18.0237 15.5355 17.8284L12.7071 15L15.5355 12.1716C15.7308 11.9763 15.7308 11.6597 15.5355 11.4645C15.3403 11.2692 15.0237 11.2692 14.8284 11.4645L11.6464 14.6464ZM32.3536 15.3536C32.5488 15.1583 32.5488 14.8417 32.3536 14.6464L29.1716 11.4645C28.9763 11.2692 28.6597 11.2692 28.4645 11.4645C28.2692 11.6597 28.2692 11.9763 28.4645 12.1716L31.2929 15L28.4645 17.8284C28.2692 18.0237 28.2692 18.3403 28.4645 18.5355C28.6597 18.7308 28.9763 18.7308 29.1716 18.5355L32.3536 15.3536ZM12 15V15.5H32V15V14.5H12V15Z" fill="black"/>
<path d="M5.17842 48.06C4.57842 48.06 4.03842 47.924 3.55842 47.652C3.08642 47.38 2.71442 47.004 2.44242 46.524C2.17042 46.036 2.03442 45.476 2.03442 44.844C2.03442 44.204 2.17042 43.644 2.44242 43.164C2.71442 42.684 3.08642 42.312 3.55842 42.048C4.03842 41.776 4.57842 41.64 5.17842 41.64C5.73042 41.64 6.22242 41.764 6.65442 42.012C7.09442 42.26 7.44242 42.624 7.69842 43.104C7.96242 43.576 8.09442 44.156 8.09442 44.844C8.09442 45.524 7.96642 46.104 7.71042 46.584C7.45442 47.064 7.10642 47.432 6.66642 47.688C6.23442 47.936 5.73842 48.06 5.17842 48.06ZM5.23842 47.304C5.68642 47.304 6.08642 47.204 6.43842 47.004C6.79842 46.796 7.07842 46.508 7.27842 46.14C7.48642 45.764 7.59042 45.332 7.59042 44.844C7.59042 44.348 7.48642 43.916 7.27842 43.548C7.07842 43.18 6.79842 42.896 6.43842 42.696C6.08642 42.488 5.68642 42.384 5.23842 42.384C4.79842 42.384 4.40242 42.488 4.05042 42.696C3.69842 42.896 3.41842 43.18 3.21042 43.548C3.00242 43.916 2.89842 44.348 2.89842 44.844C2.89842 45.332 3.00242 45.764 3.21042 46.14C3.41842 46.508 3.69842 46.796 4.05042 47.004C4.40242 47.204 4.79842 47.304 5.23842 47.304ZM7.61442 48V46.104L7.69842 44.832L7.57842 43.56V39.096H8.43042V48H7.61442ZM10.8032 48V41.7H11.6552V48H10.8032ZM11.2352 40.308C11.0592 40.308 10.9112 40.248 10.7912 40.128C10.6712 40.008 10.6112 39.864 10.6112 39.696C10.6112 39.528 10.6712 39.388 10.7912 39.276C10.9112 39.156 11.0592 39.096 11.2352 39.096C11.4112 39.096 11.5592 39.152 11.6792 39.264C11.7992 39.376 11.8592 39.516 11.8592 39.684C11.8592 39.86 11.7992 40.008 11.6792 40.128C11.5672 40.248 11.4192 40.308 11.2352 40.308ZM15.7179 48.06C15.1979 48.06 14.7059 47.988 14.2419 47.844C13.7779 47.692 13.4139 47.504 13.1499 47.28L13.5339 46.608C13.7899 46.8 14.1179 46.968 14.5179 47.112C14.9179 47.248 15.3379 47.316 15.7779 47.316C16.3779 47.316 16.8099 47.224 17.0739 47.04C17.3379 46.848 17.4699 46.596 17.4699 46.284C17.4699 46.052 17.3939 45.872 17.2419 45.744C17.0979 45.608 16.9059 45.508 16.6659 45.444C16.4259 45.372 16.1579 45.312 15.8619 45.264C15.5659 45.216 15.2699 45.16 14.9739 45.096C14.6859 45.032 14.4219 44.94 14.1819 44.82C13.9419 44.692 13.7459 44.52 13.5939 44.304C13.4499 44.088 13.3779 43.8 13.3779 43.44C13.3779 43.096 13.4739 42.788 13.6659 42.516C13.8579 42.244 14.1379 42.032 14.5059 41.88C14.8819 41.72 15.3379 41.64 15.8739 41.64C16.2819 41.64 16.6899 41.696 17.0979 41.808C17.5059 41.912 17.8419 42.052 18.1059 42.228L17.7339 42.912C17.4539 42.72 17.1539 42.584 16.8339 42.504C16.5139 42.416 16.1939 42.372 15.8739 42.372C15.3059 42.372 14.8859 42.472 14.6139 42.672C14.3499 42.864 14.2179 43.112 14.2179 43.416C14.2179 43.656 14.2899 43.844 14.4339 43.98C14.5859 44.116 14.7819 44.224 15.0219 44.304C15.2699 44.376 15.5379 44.436 15.8259 44.484C16.1219 44.532 16.4139 44.592 16.7019 44.664C16.9979 44.728 17.2659 44.82 17.5059 44.94C17.7539 45.052 17.9499 45.216 18.0939 45.432C18.2459 45.64 18.3219 45.916 18.3219 46.26C18.3219 46.628 18.2179 46.948 18.0099 47.22C17.8099 47.484 17.5139 47.692 17.1219 47.844C16.7379 47.988 16.2699 48.06 15.7179 48.06ZM23.1373 48.06C22.5933 48.06 22.1013 47.936 21.6613 47.688C21.2213 47.432 20.8693 47.068 20.6053 46.596C20.3493 46.116 20.2213 45.532 20.2213 44.844C20.2213 44.156 20.3493 43.576 20.6053 43.104C20.8613 42.624 21.2093 42.26 21.6493 42.012C22.0893 41.764 22.5853 41.64 23.1373 41.64C23.7373 41.64 24.2733 41.776 24.7453 42.048C25.2253 42.312 25.6013 42.688 25.8733 43.176C26.1453 43.656 26.2813 44.212 26.2813 44.844C26.2813 45.484 26.1453 46.044 25.8733 46.524C25.6013 47.004 25.2253 47.38 24.7453 47.652C24.2733 47.924 23.7373 48.06 23.1373 48.06ZM19.8853 50.328V41.7H20.7013V43.596L20.6173 44.856L20.7373 46.128V50.328H19.8853ZM23.0773 47.304C23.5253 47.304 23.9253 47.204 24.2773 47.004C24.6293 46.796 24.9093 46.508 25.1173 46.14C25.3253 45.764 25.4293 45.332 25.4293 44.844C25.4293 44.356 25.3253 43.928 25.1173 43.56C24.9093 43.192 24.6293 42.904 24.2773 42.696C23.9253 42.488 23.5253 42.384 23.0773 42.384C22.6293 42.384 22.2253 42.488 21.8653 42.696C21.5133 42.904 21.2333 43.192 21.0253 43.56C20.8253 43.928 20.7253 44.356 20.7253 44.844C20.7253 45.332 20.8253 45.764 21.0253 46.14C21.2333 46.508 21.5133 46.796 21.8653 47.004C22.2253 47.204 22.6293 47.304 23.0773 47.304ZM28.0181 48V39.096H28.8701V48H28.0181ZM35.1887 48V46.608L35.1527 46.38V44.052C35.1527 43.516 35.0007 43.104 34.6967 42.816C34.4007 42.528 33.9567 42.384 33.3647 42.384C32.9567 42.384 32.5687 42.452 32.2007 42.588C31.8327 42.724 31.5207 42.904 31.2647 43.128L30.8807 42.492C31.2007 42.22 31.5847 42.012 32.0327 41.868C32.4807 41.716 32.9527 41.64 33.4487 41.64C34.2647 41.64 34.8927 41.844 35.3327 42.252C35.7807 42.652 36.0047 43.264 36.0047 44.088V48H35.1887ZM33.0167 48.06C32.5447 48.06 32.1327 47.984 31.7807 47.832C31.4367 47.672 31.1727 47.456 30.9887 47.184C30.8047 46.904 30.7127 46.584 30.7127 46.224C30.7127 45.896 30.7887 45.6 30.9407 45.336C31.1007 45.064 31.3567 44.848 31.7087 44.688C32.0687 44.52 32.5487 44.436 33.1487 44.436H35.3207V45.072H33.1727C32.5647 45.072 32.1407 45.18 31.9007 45.396C31.6687 45.612 31.5527 45.88 31.5527 46.2C31.5527 46.56 31.6927 46.848 31.9727 47.064C32.2527 47.28 32.6447 47.388 33.1487 47.388C33.6287 47.388 34.0407 47.28 34.3847 47.064C34.7367 46.84 34.9927 46.52 35.1527 46.104L35.3447 46.692C35.1847 47.108 34.9047 47.44 34.5047 47.688C34.1127 47.936 33.6167 48.06 33.0167 48.06ZM38.2497 50.388C37.9537 50.388 37.6697 50.34 37.3977 50.244C37.1337 50.148 36.9057 50.004 36.7137 49.812L37.1097 49.176C37.2697 49.328 37.4417 49.444 37.6257 49.524C37.8177 49.612 38.0297 49.656 38.2617 49.656C38.5417 49.656 38.7817 49.576 38.9817 49.416C39.1897 49.264 39.3857 48.992 39.5697 48.6L39.9777 47.676L40.0737 47.544L42.6657 41.7H43.5057L40.3497 48.756C40.1737 49.164 39.9777 49.488 39.7617 49.728C39.5537 49.968 39.3257 50.136 39.0777 50.232C38.8297 50.336 38.5537 50.388 38.2497 50.388ZM39.9297 48.18L37.0257 41.7H37.9137L40.4817 47.484L39.9297 48.18Z" fill="black"/>
</svg>
