<svg width="119" height="37" viewBox="0 0 119 37" fill="none" xmlns="http://www.w3.org/2000/svg">
<path d="M20.5117 22.7764L20.5098 22.7764C20.3772 22.7763 20.25 22.7237 20.1563 22.6299L17.1572 19.6299C16.9622 19.4346 16.962 19.118 17.1572 18.9229C17.3525 18.7278 17.6691 18.7286 17.8643 18.9238L20.0205 21.0801L20.0117 13.4912C20.0116 13.2154 20.2349 12.9918 20.5107 12.9912C20.7868 12.9909 21.0113 13.2142 21.0117 13.4902L21.0205 21.0596L23.1572 18.9229C23.3525 18.7278 23.6691 18.7286 23.8643 18.9238C24.0593 19.1191 24.0595 19.4357 23.8643 19.6309L20.9277 22.5674C20.8372 22.6938 20.6897 22.777 20.5225 22.7773C20.519 22.7773 20.5151 22.7764 20.5117 22.7764ZM15.5 24.0088C15.2239 24.0088 15 23.7849 15 23.5088C15 23.2326 15.2239 23.0088 15.5 23.0088L25.5 23.0088C25.7761 23.0088 26 23.2326 26 23.5088C26 23.7849 25.7761 24.0088 25.5 24.0088L15.5 24.0088Z" fill="white"/>
<path d="M33.0228 24V14.2H37.0128C38.0581 14.2 38.9728 14.41 39.7568 14.83C40.5501 15.2407 41.1661 15.8147 41.6048 16.552C42.0434 17.2893 42.2628 18.1387 42.2628 19.1C42.2628 20.0613 42.0434 20.9107 41.6048 21.648C41.1661 22.3853 40.5501 22.964 39.7568 23.384C38.9728 23.7947 38.0581 24 37.0128 24H33.0228ZM34.0588 23.104H36.9568C37.8248 23.104 38.5761 22.936 39.2108 22.6C39.8548 22.2547 40.3541 21.7833 40.7088 21.186C41.0634 20.5793 41.2408 19.884 41.2408 19.1C41.2408 18.3067 41.0634 17.6113 40.7088 17.014C40.3541 16.4167 39.8548 15.95 39.2108 15.614C38.5761 15.2687 37.8248 15.096 36.9568 15.096H34.0588V23.104ZM47.3752 24.07C46.6658 24.07 46.0265 23.9113 45.4572 23.594C44.8972 23.2673 44.4538 22.824 44.1272 22.264C43.8005 21.6947 43.6372 21.046 43.6372 20.318C43.6372 19.5807 43.8005 18.932 44.1272 18.372C44.4538 17.812 44.8972 17.3733 45.4572 17.056C46.0172 16.7387 46.6565 16.58 47.3752 16.58C48.1032 16.58 48.7472 16.7387 49.3072 17.056C49.8765 17.3733 50.3198 17.812 50.6372 18.372C50.9638 18.932 51.1272 19.5807 51.1272 20.318C51.1272 21.046 50.9638 21.6947 50.6372 22.264C50.3198 22.824 49.8765 23.2673 49.3072 23.594C48.7378 23.9113 48.0938 24.07 47.3752 24.07ZM47.3752 23.188C47.9072 23.188 48.3785 23.0713 48.7892 22.838C49.1998 22.5953 49.5218 22.2593 49.7552 21.83C49.9978 21.3913 50.1192 20.8873 50.1192 20.318C50.1192 19.7393 49.9978 19.2353 49.7552 18.806C49.5218 18.3767 49.1998 18.0453 48.7892 17.812C48.3785 17.5693 47.9118 17.448 47.3892 17.448C46.8665 17.448 46.3998 17.5693 45.9892 17.812C45.5785 18.0453 45.2518 18.3767 45.0092 18.806C44.7665 19.2353 44.6452 19.7393 44.6452 20.318C44.6452 20.8873 44.7665 21.3913 45.0092 21.83C45.2518 22.2593 45.5785 22.5953 45.9892 22.838C46.3998 23.0713 46.8618 23.188 47.3752 23.188ZM54.4494 24L51.6774 16.65H52.6294L55.1494 23.468H54.7154L57.3054 16.65H58.1594L60.7214 23.468H60.2874L62.8494 16.65H63.7594L60.9734 24H60.0354L57.5714 17.588H57.8654L55.3874 24H54.4494ZM69.0081 16.58C69.6055 16.58 70.1281 16.6967 70.5761 16.93C71.0335 17.154 71.3881 17.4993 71.6401 17.966C71.9015 18.4327 72.0321 19.0207 72.0321 19.73V24H71.0381V19.828C71.0381 19.0533 70.8421 18.47 70.4501 18.078C70.0675 17.6767 69.5261 17.476 68.8261 17.476C68.3035 17.476 67.8461 17.5833 67.4541 17.798C67.0715 18.0033 66.7728 18.3067 66.5581 18.708C66.3528 19.1 66.2501 19.576 66.2501 20.136V24H65.2561V16.65H66.2081V18.666L66.0541 18.288C66.2875 17.756 66.6608 17.3407 67.1741 17.042C67.6875 16.734 68.2988 16.58 69.0081 16.58ZM74.7171 24V13.612H75.7111V24H74.7171ZM81.4728 24.07C80.7635 24.07 80.1242 23.9113 79.5548 23.594C78.9948 23.2673 78.5515 22.824 78.2248 22.264C77.8982 21.6947 77.7348 21.046 77.7348 20.318C77.7348 19.5807 77.8982 18.932 78.2248 18.372C78.5515 17.812 78.9948 17.3733 79.5548 17.056C80.1148 16.7387 80.7542 16.58 81.4728 16.58C82.2008 16.58 82.8448 16.7387 83.4048 17.056C83.9742 17.3733 84.4175 17.812 84.7348 18.372C85.0615 18.932 85.2248 19.5807 85.2248 20.318C85.2248 21.046 85.0615 21.6947 84.7348 22.264C84.4175 22.824 83.9742 23.2673 83.4048 23.594C82.8355 23.9113 82.1915 24.07 81.4728 24.07ZM81.4728 23.188C82.0048 23.188 82.4762 23.0713 82.8868 22.838C83.2975 22.5953 83.6195 22.2593 83.8528 21.83C84.0955 21.3913 84.2168 20.8873 84.2168 20.318C84.2168 19.7393 84.0955 19.2353 83.8528 18.806C83.6195 18.3767 83.2975 18.0453 82.8868 17.812C82.4762 17.5693 82.0095 17.448 81.4868 17.448C80.9642 17.448 80.4975 17.5693 80.0868 17.812C79.6762 18.0453 79.3495 18.3767 79.1068 18.806C78.8642 19.2353 78.7428 19.7393 78.7428 20.318C78.7428 20.8873 78.8642 21.3913 79.1068 21.83C79.3495 22.2593 79.6762 22.5953 80.0868 22.838C80.4975 23.0713 80.9595 23.188 81.4728 23.188ZM91.8191 24V22.376L91.7771 22.11V19.394C91.7771 18.7687 91.5998 18.288 91.2451 17.952C90.8998 17.616 90.3818 17.448 89.6911 17.448C89.2151 17.448 88.7625 17.5273 88.3331 17.686C87.9038 17.8447 87.5398 18.0547 87.2411 18.316L86.7931 17.574C87.1665 17.2567 87.6145 17.014 88.1371 16.846C88.6598 16.6687 89.2105 16.58 89.7891 16.58C90.7411 16.58 91.4738 16.818 91.9871 17.294C92.5098 17.7607 92.7711 18.4747 92.7711 19.436V24H91.8191ZM89.2851 24.07C88.7345 24.07 88.2538 23.9813 87.8431 23.804C87.4418 23.6173 87.1338 23.3653 86.9191 23.048C86.7045 22.7213 86.5971 22.348 86.5971 21.928C86.5971 21.5453 86.6858 21.2 86.8631 20.892C87.0498 20.5747 87.3485 20.3227 87.7591 20.136C88.1791 19.94 88.7391 19.842 89.4391 19.842H91.9731V20.584H89.4671C88.7578 20.584 88.2631 20.71 87.9831 20.962C87.7125 21.214 87.5771 21.5267 87.5771 21.9C87.5771 22.32 87.7405 22.656 88.0671 22.908C88.3938 23.16 88.8511 23.286 89.4391 23.286C89.9991 23.286 90.4798 23.16 90.8811 22.908C91.2918 22.6467 91.5905 22.2733 91.7771 21.788L92.0011 22.474C91.8145 22.9593 91.4878 23.3467 91.0211 23.636C90.5638 23.9253 89.9851 24.07 89.2851 24.07ZM98.397 24.07C97.697 24.07 97.067 23.9113 96.507 23.594C95.9563 23.2767 95.5223 22.838 95.205 22.278C94.8876 21.7087 94.729 21.0553 94.729 20.318C94.729 19.5713 94.8876 18.918 95.205 18.358C95.5223 17.798 95.9563 17.364 96.507 17.056C97.067 16.7387 97.697 16.58 98.397 16.58C99.041 16.58 99.615 16.7247 100.119 17.014C100.632 17.3033 101.038 17.728 101.337 18.288C101.645 18.8387 101.799 19.5153 101.799 20.318C101.799 21.1113 101.65 21.788 101.351 22.348C101.052 22.908 100.646 23.3373 100.133 23.636C99.629 23.9253 99.0503 24.07 98.397 24.07ZM98.467 23.188C98.9896 23.188 99.4563 23.0713 99.867 22.838C100.287 22.5953 100.614 22.2593 100.847 21.83C101.09 21.3913 101.211 20.8873 101.211 20.318C101.211 19.7393 101.09 19.2353 100.847 18.806C100.614 18.3767 100.287 18.0453 99.867 17.812C99.4563 17.5693 98.9896 17.448 98.467 17.448C97.9536 17.448 97.4916 17.5693 97.081 17.812C96.6703 18.0453 96.3436 18.3767 96.101 18.806C95.8583 19.2353 95.737 19.7393 95.737 20.318C95.737 20.8873 95.8583 21.3913 96.101 21.83C96.3436 22.2593 96.6703 22.5953 97.081 22.838C97.4916 23.0713 97.9536 23.188 98.467 23.188ZM101.239 24V21.788L101.337 20.304L101.197 18.82V13.612H102.191V24H101.239Z" fill="white"/>
</svg>
