<svg width="16" height="13" viewBox="0 0 16 13" fill="none" xmlns="http://www.w3.org/2000/svg">
<path d="M0.0580072 6.51787C0.060565 8.2363 0.799884 9.88368 2.11385 11.0988C3.42782 12.3139 5.20921 12.9976 7.06744 13C7.8508 13.0019 8.62883 12.8809 9.36848 12.6423C9.44667 12.6172 9.5187 12.5781 9.5805 12.5272C9.6423 12.4763 9.69262 12.4146 9.72856 12.3456C9.76449 12.2767 9.78536 12.2018 9.78993 12.1254C9.7945 12.049 9.78267 11.9724 9.75517 11.9002C9.69625 11.757 9.58023 11.6401 9.43097 11.5736C9.28171 11.5071 9.11059 11.496 8.95275 11.5426C8.33178 11.7446 7.67735 11.8445 7.01911 11.8377C5.8718 11.8377 4.75024 11.523 3.79629 10.9336C2.84233 10.3441 2.09883 9.5063 1.65977 8.52607C1.22072 7.54584 1.10578 6.46721 1.32961 5.4266C1.55344 4.38599 2.10594 3.43013 2.91722 2.67989C3.72849 1.92965 4.7621 1.41874 5.88736 1.21175C7.01263 1.00475 8.17903 1.11099 9.23901 1.51701C10.299 1.92304 11.2049 2.61063 11.8424 3.49281C12.4798 4.375 12.82 5.41217 12.82 6.47317C12.8297 6.58027 12.8297 6.68793 12.82 6.79504C12.8186 6.95102 12.8023 7.10658 12.7716 7.25996L12.4042 6.70562L12.0756 6.21388C12.0318 6.14872 11.9745 6.09217 11.9071 6.04747C11.8397 6.00277 11.7634 5.97078 11.6826 5.95335C11.6018 5.93591 11.518 5.93337 11.4361 5.94585C11.3543 5.95834 11.2759 5.98562 11.2054 6.02613C11.1349 6.06663 11.0738 6.11958 11.0255 6.18194C10.9771 6.2443 10.9425 6.31486 10.9237 6.38958C10.9048 6.4643 10.9021 6.54172 10.9156 6.61742C10.9291 6.69313 10.9586 6.76564 11.0024 6.8308L12.8007 9.51305L15.7011 7.83218C15.7716 7.79281 15.8329 7.74083 15.8813 7.67929C15.9298 7.61774 15.9646 7.54787 15.9835 7.47376C16.0024 7.39965 16.0051 7.3228 15.9915 7.24771C15.9778 7.17261 15.9482 7.10079 15.9042 7.03644C15.8146 6.90603 15.6732 6.81332 15.5105 6.77822C15.3478 6.74311 15.1768 6.76841 15.034 6.84868L14.5023 7.16161L14.0189 7.43878C14.0189 7.31361 14.0189 7.18843 14.0189 7.06326C14.0189 6.93809 14.0189 6.6788 14.0189 6.4821C14.0189 4.76294 13.2804 3.1142 11.9659 1.89857C10.6513 0.682939 8.86846 0 7.00944 0C5.15042 0 3.36754 0.682939 2.05302 1.89857C0.738491 3.1142 4.09808e-07 4.76294 4.09808e-07 6.4821L0.0580072 6.51787Z" fill="white"/>
</svg>
