<svg width="78" height="35" viewBox="0 0 78 35" fill="none" xmlns="http://www.w3.org/2000/svg">
<path d="M24.3379 12C24.588 12 24.8293 12.0938 25.0137 12.2627L27.6758 14.7031C27.8822 14.8924 27.9999 15.1594 28 15.4395V22C28 22.5523 27.5523 23 27 23H17C16.4477 23 16 22.5523 16 22V13C16 12.4477 16.4477 12 17 12H24.3379ZM17 22H18.5V19C18.5 18.1716 19.1716 17.5 20 17.5H24C24.8284 17.5 25.5 18.1716 25.5 19V22H27V15.4395L24.3379 13H23.5V14C23.5 14.8284 22.8284 15.5 22 15.5H19.5C18.6716 15.5 18 14.8284 18 14V13H17V22ZM20 18.5C19.7239 18.5 19.5 18.7239 19.5 19V22H24.5V19C24.5 18.7239 24.2761 18.5 24 18.5H20ZM19 14C19 14.2761 19.2239 14.5 19.5 14.5H22C22.2761 14.5 22.5 14.2761 22.5 14V13H19V14Z" fill="white"/>
<path d="M36.7593 22.12C36.1033 22.12 35.4753 22.028 34.8753 21.844C34.2753 21.652 33.7993 21.408 33.4473 21.112L33.9873 19.9C34.3233 20.164 34.7393 20.384 35.2353 20.56C35.7313 20.736 36.2393 20.824 36.7593 20.824C37.1993 20.824 37.5553 20.776 37.8273 20.68C38.0993 20.584 38.2993 20.456 38.4273 20.296C38.5553 20.128 38.6193 19.94 38.6193 19.732C38.6193 19.476 38.5273 19.272 38.3433 19.12C38.1593 18.96 37.9193 18.836 37.6233 18.748C37.3353 18.652 37.0113 18.564 36.6513 18.484C36.2993 18.404 35.9433 18.312 35.5833 18.208C35.2313 18.096 34.9073 17.956 34.6113 17.788C34.3233 17.612 34.0873 17.38 33.9033 17.092C33.7193 16.804 33.6273 16.436 33.6273 15.988C33.6273 15.532 33.7473 15.116 33.9873 14.74C34.2353 14.356 34.6073 14.052 35.1033 13.828C35.6073 13.596 36.2433 13.48 37.0113 13.48C37.5153 13.48 38.0153 13.544 38.5113 13.672C39.0073 13.8 39.4393 13.984 39.8073 14.224L39.3153 15.436C38.9393 15.212 38.5513 15.048 38.1513 14.944C37.7513 14.832 37.3673 14.776 36.9993 14.776C36.5673 14.776 36.2153 14.828 35.9433 14.932C35.6793 15.036 35.4833 15.172 35.3553 15.34C35.2353 15.508 35.1753 15.7 35.1753 15.916C35.1753 16.172 35.2633 16.38 35.4393 16.54C35.6233 16.692 35.8593 16.812 36.1473 16.9C36.4433 16.988 36.7713 17.076 37.1313 17.164C37.4913 17.244 37.8473 17.336 38.1993 17.44C38.5593 17.544 38.8833 17.68 39.1713 17.848C39.4673 18.016 39.7033 18.244 39.8793 18.532C40.0633 18.82 40.1553 19.184 40.1553 19.624C40.1553 20.072 40.0313 20.488 39.7833 20.872C39.5433 21.248 39.1713 21.552 38.6673 21.784C38.1633 22.008 37.5273 22.12 36.7593 22.12ZM45.5062 22V20.704L45.4222 20.428V18.16C45.4222 17.72 45.2902 17.38 45.0262 17.14C44.7622 16.892 44.3622 16.768 43.8262 16.768C43.4662 16.768 43.1102 16.824 42.7582 16.936C42.4142 17.048 42.1222 17.204 41.8822 17.404L41.2942 16.312C41.6382 16.048 42.0462 15.852 42.5182 15.724C42.9982 15.588 43.4942 15.52 44.0062 15.52C44.9342 15.52 45.6502 15.744 46.1542 16.192C46.6662 16.632 46.9222 17.316 46.9222 18.244V22H45.5062ZM43.4902 22.084C43.0102 22.084 42.5902 22.004 42.2302 21.844C41.8702 21.676 41.5902 21.448 41.3902 21.16C41.1982 20.864 41.1022 20.532 41.1022 20.164C41.1022 19.804 41.1862 19.48 41.3542 19.192C41.5302 18.904 41.8142 18.676 42.2062 18.508C42.5982 18.34 43.1182 18.256 43.7662 18.256H45.6262V19.252H43.8742C43.3622 19.252 43.0182 19.336 42.8422 19.504C42.6662 19.664 42.5782 19.864 42.5782 20.104C42.5782 20.376 42.6862 20.592 42.9022 20.752C43.1182 20.912 43.4182 20.992 43.8022 20.992C44.1702 20.992 44.4982 20.908 44.7862 20.74C45.0822 20.572 45.2942 20.324 45.4222 19.996L45.6742 20.896C45.5302 21.272 45.2702 21.564 44.8942 21.772C44.5262 21.98 44.0582 22.084 43.4902 22.084ZM50.4341 22L47.6861 15.592H49.2461L51.6101 21.244H50.8421L53.2901 15.592H54.7301L51.9821 22H50.4341ZM58.5038 22.084C57.7918 22.084 57.1678 21.944 56.6318 21.664C56.1038 21.376 55.6918 20.984 55.3958 20.488C55.1078 19.992 54.9638 19.428 54.9638 18.796C54.9638 18.156 55.1038 17.592 55.3838 17.104C55.6718 16.608 56.0638 16.22 56.5598 15.94C57.0638 15.66 57.6358 15.52 58.2758 15.52C58.8998 15.52 59.4558 15.656 59.9438 15.928C60.4318 16.2 60.8158 16.584 61.0958 17.08C61.3758 17.576 61.5158 18.16 61.5158 18.832C61.5158 18.896 61.5118 18.968 61.5038 19.048C61.5038 19.128 61.4998 19.204 61.4918 19.276H56.1518V18.28H60.6998L60.1118 18.592C60.1198 18.224 60.0438 17.9 59.8838 17.62C59.7238 17.34 59.5038 17.12 59.2238 16.96C58.9518 16.8 58.6358 16.72 58.2758 16.72C57.9078 16.72 57.5838 16.8 57.3038 16.96C57.0318 17.12 56.8158 17.344 56.6558 17.632C56.5038 17.912 56.4278 18.244 56.4278 18.628V18.868C56.4278 19.252 56.5158 19.592 56.6918 19.888C56.8678 20.184 57.1158 20.412 57.4358 20.572C57.7558 20.732 58.1238 20.812 58.5398 20.812C58.8998 20.812 59.2238 20.756 59.5118 20.644C59.7998 20.532 60.0558 20.356 60.2798 20.116L61.0838 21.04C60.7958 21.376 60.4318 21.636 59.9918 21.82C59.5598 21.996 59.0638 22.084 58.5038 22.084Z" fill="white"/>
</svg>
