<svg width="30" height="43" viewBox="0 0 30 43" fill="none" xmlns="http://www.w3.org/2000/svg">
<path d="M6.15763 40V33.257H3.51763V32.3H9.88663V33.257H7.24663V40H6.15763ZM12.9251 40.066C12.3018 40.066 11.7518 39.9377 11.2751 39.681C10.8058 39.4243 10.4391 39.0723 10.1751 38.625C9.91846 38.1777 9.79013 37.6643 9.79013 37.085C9.79013 36.5057 9.91479 35.9923 10.1641 35.545C10.4208 35.0977 10.7691 34.7493 11.2091 34.5C11.6565 34.2433 12.1588 34.115 12.7161 34.115C13.2808 34.115 13.7795 34.2397 14.2121 34.489C14.6448 34.7383 14.9821 35.0903 15.2241 35.545C15.4735 35.9923 15.5981 36.5167 15.5981 37.118C15.5981 37.162 15.5945 37.2133 15.5871 37.272C15.5871 37.3307 15.5835 37.3857 15.5761 37.437H10.6151V36.678H15.0261L14.5971 36.942C14.6045 36.568 14.5275 36.2343 14.3661 35.941C14.2048 35.6477 13.9811 35.4203 13.6951 35.259C13.4165 35.0903 13.0901 35.006 12.7161 35.006C12.3495 35.006 12.0231 35.0903 11.7371 35.259C11.4511 35.4203 11.2275 35.6513 11.0661 35.952C10.9048 36.2453 10.8241 36.5827 10.8241 36.964V37.14C10.8241 37.5287 10.9121 37.877 11.0881 38.185C11.2715 38.4857 11.5245 38.7203 11.8471 38.889C12.1698 39.0577 12.5401 39.142 12.9581 39.142C13.3028 39.142 13.6145 39.0833 13.8931 38.966C14.1791 38.8487 14.4285 38.6727 14.6411 38.438L15.2241 39.12C14.9601 39.428 14.6301 39.6627 14.2341 39.824C13.8455 39.9853 13.4091 40.066 12.9251 40.066ZM16.0563 40L18.5643 36.744L18.5533 37.283L16.1663 34.17H17.3433L19.1693 36.568H18.7183L20.5443 34.17H21.6993L19.2793 37.305L19.2903 36.744L21.8203 40H20.6213L18.6963 37.448L19.1253 37.514L17.2333 40H16.0563ZM24.9747 40.066C24.388 40.066 23.9333 39.9083 23.6107 39.593C23.288 39.2777 23.1267 38.8267 23.1267 38.24V32.894H24.1827V38.196C24.1827 38.5113 24.2597 38.7533 24.4137 38.922C24.575 39.0907 24.8023 39.175 25.0957 39.175C25.4257 39.175 25.7007 39.0833 25.9207 38.9L26.2507 39.659C26.0893 39.7983 25.895 39.901 25.6677 39.967C25.4477 40.033 25.2167 40.066 24.9747 40.066ZM22.1367 35.039V34.17H25.8547V35.039H22.1367Z" fill="white"/>
<path d="M21.4161 1H8.58393C5.50001 1 3 3.50001 3 6.58393V19.4161C3 22.5 5.50001 25 8.58393 25H21.4161C24.5 25 27 22.5 27 19.4161V6.58393C27 3.50001 24.5 1 21.4161 1Z" stroke="white" stroke-miterlimit="10"/>
<path d="M12.6741 10.2C13.4713 10.141 14.2624 10.3809 14.8918 10.8738C15.1747 11.1609 15.3925 11.5059 15.5305 11.8846C15.6685 12.2632 15.7233 12.6674 15.6916 13.0691V17.6404H14.5491V16.7146C14.3817 16.9324 14.1759 17.1185 13.9426 17.2635C13.4067 17.5779 12.792 17.7332 12.1711 17.7098C11.6736 17.7203 11.1793 17.6267 10.72 17.4353C10.3351 17.2632 10.0036 16.9903 9.76 16.6463C9.54002 16.3061 9.42421 15.9088 9.42797 15.5037C9.42222 15.1261 9.52151 14.7534 9.7141 14.4285C9.93037 14.0735 10.255 13.7974 10.6399 13.6404C11.1762 13.4225 11.7528 13.3205 12.3313 13.3426H14.5032V13.0232C14.521 12.7809 14.4873 12.5369 14.4045 12.3084C14.3218 12.0801 14.1914 11.8717 14.0227 11.6971C13.618 11.3587 13.0977 11.1904 12.5715 11.2283C12.131 11.229 11.6935 11.3062 11.2795 11.4568C10.9039 11.5918 10.5558 11.7936 10.2512 12.0516L10.1487 12.1434L9.58813 11.2166L9.65649 11.1482C10.0607 10.8223 10.5221 10.5743 11.0168 10.4168C11.5529 10.2508 12.1134 10.1777 12.6741 10.2ZM19.3264 10.2566V17.6863H18.1262V10.2566H19.3264ZM12.3547 14.3484C11.8714 14.2981 11.3854 14.4204 10.9827 14.6922C10.8678 14.7987 10.776 14.9276 10.7131 15.0711C10.6502 15.2146 10.617 15.3695 10.6164 15.5262C10.6089 15.6992 10.6451 15.8715 10.7209 16.0271C10.7968 16.1828 10.9102 16.3171 11.051 16.4178C11.4275 16.6726 11.8774 16.7972 12.3313 16.7723C12.807 16.7854 13.276 16.6577 13.6799 16.406C14.0616 16.1702 14.3522 15.8119 14.5032 15.3894V14.3484H12.3547ZM18.7327 7.28495C18.9489 7.28271 19.1576 7.36481 19.3147 7.51347C19.392 7.58455 19.454 7.67181 19.4954 7.76835C19.5366 7.8648 19.5568 7.96912 19.5549 8.07402C19.5588 8.18331 19.5405 8.29225 19.5012 8.39433C19.4619 8.49637 19.4025 8.58929 19.3264 8.66777C19.2497 8.74715 19.1573 8.81001 19.0549 8.85136C18.9527 8.89265 18.8429 8.91176 18.7327 8.908C18.6242 8.91093 18.5156 8.89169 18.4153 8.85038C18.3149 8.80904 18.2247 8.74627 18.1497 8.66777C18.0718 8.59238 18.0093 8.50236 17.968 8.40214C17.9267 8.30184 17.9072 8.19321 17.9094 8.08476C17.9076 7.9799 17.9277 7.87549 17.969 7.77909C18.0104 7.68264 18.0724 7.59622 18.1497 7.52519C18.2249 7.44743 18.3152 7.38579 18.4153 7.34452C18.5156 7.30322 18.6242 7.28273 18.7327 7.28495Z" fill="white"/>
</svg>
