<svg width="16" height="13" viewBox="0 0 16 13" fill="none" xmlns="http://www.w3.org/2000/svg">
<path d="M15.942 6.51787C15.9394 8.2363 15.2001 9.88368 13.8861 11.0988C12.5722 12.3139 10.7908 12.9976 8.93256 13C8.1492 13.0019 7.37117 12.8809 6.63152 12.6423C6.55333 12.6172 6.4813 12.5781 6.4195 12.5272C6.3577 12.4763 6.30738 12.4146 6.27144 12.3456C6.23551 12.2767 6.21464 12.2018 6.21007 12.1254C6.2055 12.049 6.21733 11.9724 6.24483 11.9002C6.30375 11.757 6.41977 11.6401 6.56903 11.5736C6.71829 11.5071 6.88941 11.496 7.04725 11.5426C7.66822 11.7446 8.32265 11.8445 8.98088 11.8377C10.1282 11.8377 11.2498 11.523 12.2037 10.9336C13.1577 10.3441 13.9012 9.5063 14.3402 8.52607C14.7793 7.54584 14.8942 6.46721 14.6704 5.4266C14.4466 4.38599 13.8941 3.43013 13.0828 2.67989C12.2715 1.92965 11.2379 1.41874 10.1126 1.21175C8.98737 1.00475 7.82097 1.11099 6.76099 1.51701C5.70101 1.92304 4.79506 2.61063 4.15765 3.49281C3.52024 4.375 3.17997 5.41217 3.17997 6.47317C3.17033 6.58027 3.17033 6.68793 3.17997 6.79504C3.18144 6.95102 3.19766 7.10658 3.22836 7.25996L3.59576 6.70562L3.92444 6.21388C3.96824 6.14872 4.02548 6.09217 4.09291 6.04747C4.16035 6.00277 4.23665 5.97078 4.31745 5.95335C4.39825 5.93591 4.48201 5.93337 4.56387 5.94585C4.64574 5.95834 4.72414 5.98562 4.7946 6.02613C4.86507 6.06663 4.92618 6.11958 4.97452 6.18194C5.02286 6.2443 5.05746 6.31486 5.07632 6.38958C5.09517 6.4643 5.0979 6.54172 5.0844 6.61743C5.0709 6.69313 5.0414 6.76564 4.9976 6.8308L3.19933 9.51305L0.29887 7.83218C0.228389 7.79281 0.167136 7.74083 0.118654 7.67929C0.0701712 7.61774 0.0354164 7.54787 0.0165076 7.47376C-0.00240117 7.39965 -0.00507796 7.3228 0.00854129 7.24771C0.0221606 7.17261 0.0517975 7.10079 0.095817 7.03644C0.185405 6.90603 0.326777 6.81332 0.489472 6.77822C0.652168 6.74311 0.823232 6.76841 0.965978 6.84868L1.49772 7.16161L1.98113 7.43878C1.98113 7.31361 1.98113 7.18843 1.98113 7.06326C1.98113 6.93809 1.98113 6.6788 1.98113 6.4821C1.98113 4.76294 2.71962 3.1142 4.03414 1.89857C5.34866 0.682939 7.13154 0 8.99056 0C10.8496 0 12.6325 0.682939 13.947 1.89857C15.2615 3.1142 16 4.76294 16 6.4821L15.942 6.51787Z" fill="white"/>
</svg>
