<svg width="51" height="37" viewBox="0 0 51 37" fill="none" xmlns="http://www.w3.org/2000/svg">
<path d="M6.9534 34.713C5.9414 34.713 5.14573 34.4233 4.5664 33.844C3.98707 33.2647 3.6974 32.4177 3.6974 31.303V26.925H4.7974V31.259C4.7974 32.117 4.9844 32.744 5.3584 33.14C5.73973 33.536 6.27507 33.734 6.9644 33.734C7.66107 33.734 8.1964 33.536 8.5704 33.14C8.95173 32.744 9.1424 32.117 9.1424 31.259V26.925H10.2094V31.303C10.2094 32.4177 9.91973 33.2647 9.3404 33.844C8.7684 34.4233 7.97273 34.713 6.9534 34.713ZM15.4016 34.691C14.9176 34.691 14.4739 34.581 14.0706 34.361C13.6746 34.1337 13.3556 33.8 13.1136 33.36C12.8789 32.92 12.7616 32.37 12.7616 31.71C12.7616 31.05 12.8752 30.5 13.1026 30.06C13.3372 29.62 13.6526 29.29 14.0486 29.07C14.4519 28.85 14.9029 28.74 15.4016 28.74C15.9736 28.74 16.4796 28.8647 16.9196 29.114C17.3596 29.3633 17.7079 29.7117 17.9646 30.159C18.2212 30.599 18.3496 31.116 18.3496 31.71C18.3496 32.304 18.2212 32.8247 17.9646 33.272C17.7079 33.7193 17.3596 34.0677 16.9196 34.317C16.4796 34.5663 15.9736 34.691 15.4016 34.691ZM12.3106 36.759V28.795H13.3226V30.368L13.2566 31.721L13.3666 33.074V36.759H12.3106ZM15.3136 33.767C15.6876 33.767 16.0212 33.6827 16.3146 33.514C16.6152 33.3453 16.8499 33.107 17.0186 32.799C17.1946 32.4837 17.2826 32.1207 17.2826 31.71C17.2826 31.292 17.1946 30.9327 17.0186 30.632C16.8499 30.324 16.6152 30.0857 16.3146 29.917C16.0212 29.7483 15.6876 29.664 15.3136 29.664C14.9469 29.664 14.6132 29.7483 14.3126 29.917C14.0192 30.0857 13.7846 30.324 13.6086 30.632C13.4399 30.9327 13.3556 31.292 13.3556 31.71C13.3556 32.1207 13.4399 32.4837 13.6086 32.799C13.7846 33.107 14.0192 33.3453 14.3126 33.514C14.6132 33.6827 14.9469 33.767 15.3136 33.767ZM19.8086 34.625V26.463H20.8646V34.625H19.8086ZM25.3779 34.691C24.7912 34.691 24.2705 34.5627 23.8159 34.306C23.3612 34.0493 23.0019 33.6973 22.7379 33.25C22.4739 32.7953 22.3419 32.282 22.3419 31.71C22.3419 31.1307 22.4739 30.6173 22.7379 30.17C23.0019 29.7227 23.3612 29.3743 23.8159 29.125C24.2705 28.8683 24.7912 28.74 25.3779 28.74C25.9572 28.74 26.4742 28.8683 26.9289 29.125C27.3909 29.3743 27.7502 29.7227 28.0069 30.17C28.2709 30.61 28.4029 31.1233 28.4029 31.71C28.4029 32.2893 28.2709 32.8027 28.0069 33.25C27.7502 33.6973 27.3909 34.0493 26.9289 34.306C26.4742 34.5627 25.9572 34.691 25.3779 34.691ZM25.3779 33.767C25.7519 33.767 26.0855 33.6827 26.3789 33.514C26.6795 33.3453 26.9142 33.107 27.0829 32.799C27.2515 32.4837 27.3359 32.1207 27.3359 31.71C27.3359 31.292 27.2515 30.9327 27.0829 30.632C26.9142 30.324 26.6795 30.0857 26.3789 29.917C26.0855 29.7483 25.7519 29.664 25.3779 29.664C25.0039 29.664 24.6702 29.7483 24.3769 29.917C24.0835 30.0857 23.8489 30.324 23.6729 30.632C23.4969 30.9327 23.4089 31.292 23.4089 31.71C23.4089 32.1207 23.4969 32.4837 23.6729 32.799C23.8489 33.107 24.0835 33.3453 24.3769 33.514C24.6702 33.6827 25.0039 33.767 25.3779 33.767ZM33.4286 34.625V33.393L33.3736 33.162V31.061C33.3736 30.6137 33.2416 30.269 32.9776 30.027C32.7209 29.7777 32.3323 29.653 31.8116 29.653C31.4669 29.653 31.1296 29.7117 30.7996 29.829C30.4696 29.939 30.1909 30.0893 29.9636 30.28L29.5236 29.488C29.8243 29.246 30.1836 29.0627 30.6016 28.938C31.0269 28.806 31.4706 28.74 31.9326 28.74C32.7319 28.74 33.3479 28.9343 33.7806 29.323C34.2133 29.7117 34.4296 30.3057 34.4296 31.105V34.625H33.4286ZM31.5146 34.691C31.0819 34.691 30.7006 34.6177 30.3706 34.471C30.0479 34.3243 29.7986 34.1227 29.6226 33.866C29.4466 33.602 29.3586 33.305 29.3586 32.975C29.3586 32.6597 29.4319 32.3737 29.5786 32.117C29.7326 31.8603 29.9783 31.655 30.3156 31.501C30.6603 31.347 31.1223 31.27 31.7016 31.27H33.5496V32.029H31.7456C31.2176 32.029 30.8619 32.117 30.6786 32.293C30.4953 32.469 30.4036 32.6817 30.4036 32.931C30.4036 33.217 30.5173 33.448 30.7446 33.624C30.9719 33.7927 31.2873 33.877 31.6906 33.877C32.0866 33.877 32.4313 33.789 32.7246 33.613C33.0253 33.437 33.2416 33.1803 33.3736 32.843L33.5826 33.569C33.4433 33.9137 33.1976 34.1887 32.8456 34.394C32.4936 34.592 32.0499 34.691 31.5146 34.691ZM38.7928 34.691C38.2281 34.691 37.7221 34.5663 37.2748 34.317C36.8348 34.0677 36.4865 33.7193 36.2298 33.272C35.9731 32.8247 35.8448 32.304 35.8448 31.71C35.8448 31.116 35.9731 30.599 36.2298 30.159C36.4865 29.7117 36.8348 29.3633 37.2748 29.114C37.7221 28.8647 38.2281 28.74 38.7928 28.74C39.2841 28.74 39.7278 28.85 40.1238 29.07C40.5198 29.29 40.8351 29.62 41.0698 30.06C41.3118 30.5 41.4328 31.05 41.4328 31.71C41.4328 32.37 41.3155 32.92 41.0808 33.36C40.8535 33.8 40.5418 34.1337 40.1458 34.361C39.7498 34.581 39.2988 34.691 38.7928 34.691ZM38.8808 33.767C39.2475 33.767 39.5775 33.6827 39.8708 33.514C40.1715 33.3453 40.4061 33.107 40.5748 32.799C40.7508 32.4837 40.8388 32.1207 40.8388 31.71C40.8388 31.292 40.7508 30.9327 40.5748 30.632C40.4061 30.324 40.1715 30.0857 39.8708 29.917C39.5775 29.7483 39.2475 29.664 38.8808 29.664C38.5068 29.664 38.1731 29.7483 37.8798 29.917C37.5865 30.0857 37.3518 30.324 37.1758 30.632C36.9998 30.9327 36.9118 31.292 36.9118 31.71C36.9118 32.1207 36.9998 32.4837 37.1758 32.799C37.3518 33.107 37.5865 33.3453 37.8798 33.514C38.1731 33.6827 38.5068 33.767 38.8808 33.767ZM40.8718 34.625V33.052L40.9378 31.699L40.8278 30.346V26.463H41.8838V34.625H40.8718ZM45.5539 34.691C45.0699 34.691 44.6079 34.625 44.1679 34.493C43.7352 34.361 43.3942 34.1997 43.1449 34.009L43.5849 33.173C43.8342 33.3417 44.1422 33.4847 44.5089 33.602C44.8755 33.7193 45.2495 33.778 45.6309 33.778C46.1222 33.778 46.4742 33.7083 46.6869 33.569C46.9069 33.4297 47.0169 33.2353 47.0169 32.986C47.0169 32.8027 46.9509 32.6597 46.8189 32.557C46.6869 32.4543 46.5109 32.3773 46.2909 32.326C46.0782 32.2747 45.8399 32.2307 45.5759 32.194C45.3119 32.15 45.0479 32.0987 44.7839 32.04C44.5199 31.974 44.2779 31.886 44.0579 31.776C43.8379 31.6587 43.6619 31.501 43.5299 31.303C43.3979 31.0977 43.3319 30.8263 43.3319 30.489C43.3319 30.137 43.4309 29.829 43.6289 29.565C43.8269 29.301 44.1055 29.0993 44.4649 28.96C44.8315 28.8133 45.2642 28.74 45.7629 28.74C46.1442 28.74 46.5292 28.7877 46.9179 28.883C47.3139 28.971 47.6365 29.0993 47.8859 29.268L47.4349 30.104C47.1709 29.928 46.8959 29.807 46.6099 29.741C46.3239 29.675 46.0379 29.642 45.7519 29.642C45.2899 29.642 44.9452 29.719 44.7179 29.873C44.4905 30.0197 44.3769 30.2103 44.3769 30.445C44.3769 30.643 44.4429 30.797 44.5749 30.907C44.7142 31.0097 44.8902 31.0903 45.1029 31.149C45.3229 31.2077 45.5649 31.259 45.8289 31.303C46.0929 31.3397 46.3569 31.391 46.6209 31.457C46.8849 31.5157 47.1232 31.6 47.3359 31.71C47.5559 31.82 47.7319 31.974 47.8639 32.172C48.0032 32.37 48.0729 32.634 48.0729 32.964C48.0729 33.316 47.9702 33.6203 47.7649 33.877C47.5595 34.1337 47.2699 34.3353 46.8959 34.482C46.5219 34.6213 46.0745 34.691 45.5539 34.691Z" fill="white"/>
<path d="M25.1494 18.3922V10.6983" stroke="white" stroke-width="1.03" stroke-linecap="round" stroke-linejoin="round"/>
<path d="M22.4858 13.2069L25.1492 10.6983L27.8126 13.2069" stroke="white" stroke-width="1.03" stroke-linecap="round" stroke-linejoin="round"/>
<path d="M31.1278 14.8753H33.5831C35.9829 14.8753 37.9249 13.1949 37.9249 11.1184C37.9249 9.04193 36.0106 7.38553 33.6386 7.36152C33.7079 7.09746 33.7495 6.82139 33.7495 6.53333C33.7495 4.58886 31.9323 3.00448 29.6713 3.00448C28.9222 3.00448 28.2286 3.17252 27.6321 3.47259C26.7166 2.00824 24.9133 1 22.8603 1C19.864 1 17.4364 3.1005 17.4364 5.69312C17.4364 5.84916 17.4364 6.0052 17.4642 6.16124C17.4364 6.16124 17.4087 6.16124 17.3809 6.16124C14.6066 6.16124 12.3594 8.1057 12.3594 10.5063C12.3594 12.9069 14.6066 14.8513 17.3809 14.8513H19.4339" stroke="white" stroke-width="1.03" stroke-linecap="round" stroke-linejoin="round"/>
</svg>
